{"title":"The.Timber.2015.BRRip.480p.x264.AAC-VYTO [P2PDL]","uid":11706527,"size":298044203,"categoryP":"video","categoryS":"movies","magnet":"?xt=urn:btih:5795000617856fce09eca66bbe8737769b335340&amp;dn=The.Timber.2015.BRRip.480p.x264.AAC-VYTO+%5BP2PDL%5D&amp;tr=udp%3A%2F%2Ftracker.openbittorrent.com%3A80&amp;tr=udp%3A%2F%2Fopen.demonii.com%3A1337&amp;tr=udp%3A%2F%2Ftracker.coppersurfer.tk%3A6969&amp;tr=udp%3A%2F%2Fexodus.desync.com%3A6969","seeders":0,"leechers":1,"uploader":"ValidusVyto","files":5,"time":1424149732,"description":"The.Timber.2015.BRRip.480p.x264.AAC-VYTO\n\n\nGenre: Adventure | Drama | Western \nIMDb: http://www.imdb.com/title/tt2215673/\n\nFormat                      : MPEG-4\nFile size                   : 277 MiB\nDuration                    : 1h 22mn\nOverall bit rate            : 470 Kbps\n\nVideo\nFormat                      : AVC\nBit rate                    : 435 Kbps\nWidth                       : 720 pixels\nHeight                      : 304 pixels\nDisplay aspect ratio        : 2.35:1\nFrame rate mode             : Constant\nFrame rate                  : 23.976 fps\nBit depth                   : 8 bits\nStream size                 : 256 MiB (93%)\nWriting library             : x264 core 144 r2525kMod 40bb568\n\nAudio\nFormat                      : AAC\nBit rate mode               : Variable\nBit rate                    : 31.9 Kbps\nChannel(s)                  : 2 channels\nChannel positions           : Front: L R\nSampling rate               : 48.0 KHz\nStream size                 : 18.8 MiB (7%)\nLanguage                    : English\n\nSubtitle                    : N/a\n &lt;a href=&quot;\nhttp://someimage.com/1Xr4Y7J&quot; rel=&quot;nofollow&quot; target=&quot;_NEW&quot;&gt;\nhttp://someimage.com/1Xr4Y7J&lt;/a&gt; &lt;a href=&quot;\nhttp://someimage.com/ubC6Nwg&quot; rel=&quot;nofollow&quot; target=&quot;_NEW&quot;&gt;\nhttp://someimage.com/ubC6Nwg&lt;/a&gt; &lt;a href=&quot;\nhttp://someimage.com/jxKvYAA&quot; rel=&quot;nofollow&quot; target=&quot;_NEW&quot;&gt;\nhttp://someimage.com/jxKvYAA&lt;/a&gt; &lt;a href=&quot;\nhttp://someimage.com/kf14f5O&quot; rel=&quot;nofollow&quot; target=&quot;_NEW&quot;&gt;\nhttp://someimage.com/kf14f5O&lt;/a&gt; &lt;a href=&quot;\nhttp://someimage.com/OhgbHPT&quot; rel=&quot;nofollow&quot; target=&quot;_NEW&quot;&gt;\nhttp://someimage.com/OhgbHPT&lt;/a&gt; &lt;a href=&quot;\nhttp://someimage.com/QK5mo3p&quot; rel=&quot;nofollow&quot; target=&quot;_NEW&quot;&gt;\nhttp://someimage.com/QK5mo3p&lt;/a&gt; &lt;a href=&quot;\nhttp://someimage.com/iuIKtkZ&quot; rel=&quot;nofollow&quot; target=&quot;_NEW&quot;&gt;\nhttp://someimage.com/iuIKtkZ&lt;/a&gt; &lt;a href=&quot;\nhttp://someimage.com/UxYDRiK&quot; rel=&quot;nofollow&quot; target=&quot;_NEW&quot;&gt;\nhttp://someimage.com/UxYDRiK&lt;/a&gt; &lt;a href=&quot;\nhttp://someimage.com/90rUEF3&quot; rel=&quot;nofollow&quot; target=&quot;_NEW&quot;&gt;\nhttp://someimage.com/90rUEF3&lt;/a&gt;\n\n----------------------------------------------------------------------------------------------------\n\n\nEncoder Notes: Looking For Early Access To Anything You Can Provide DVDScr, R5, DVDR, BluRay, Direct\nAudio, Music Releases and Seedboxes. If You Got anything to offer please contact us.\n\nWe require dedicated servers, so as to do more and fast releases of movies.\nSupport us by sending us LC - LezHMTo2cYaiztCCcWxB4cNFVNVpWW3GSx","torrent":{"xt":"urn:btih:5795000617856fce09eca66bbe8737769b335340","amp;dn":"The.Timber.2015.BRRip.480p.x264.AAC-VYTO+%5BP2PDL%5D","amp;tr":["udp%3A%2F%2Ftracker.openbittorrent.com%3A80","udp%3A%2F%2Fopen.demonii.com%3A1337","udp%3A%2F%2Ftracker.coppersurfer.tk%3A6969","udp%3A%2F%2Fexodus.desync.com%3A6969"],"infoHash":"5795000617856fce09eca66bbe8737769b335340","infoHashBuffer":{"type":"Buffer","data":[87,149,0,6,23,133,111,206,9,236,166,107,190,135,55,118,155,51,83,64]},"announce":[],"urlList":[]}}